<?xml version="1.0" standalone="no"?>
<!DOCTYPE svg PUBLIC "-//W3C//DTD SVG 20010904//EN"
 "http://www.w3.org/TR/2001/REC-SVG-20010904/DTD/svg10.dtd">
<svg version="1.0" xmlns="http://www.w3.org/2000/svg"
 width="128.000000pt" height="128.000000pt" viewBox="0 0 128.000000 128.000000"
 preserveAspectRatio="xMidYMid meet">
<metadata>
Created by potrace 1.14, written by Peter Selinger 2001-2017
</metadata>
<g transform="translate(0.000000,128.000000) scale(0.100000,-0.100000)"
fill="#000000" stroke="none">
<path d="M959 1145 c-4 -37 0 -206 5 -214 4 -5 2 -13 -4 -16 -6 -4 -23 21 -40
59 -34 75 -53 86 -38 24 5 -24 9 -101 8 -173 -1 -155 -1 -155 -12 -155 -7 0
-13 39 -9 62 0 4 -9 12 -20 18 -12 7 -18 18 -15 26 3 8 2 13 -3 10 -5 -3 -17
7 -26 22 -10 15 -25 33 -34 40 -48 39 -177 132 -183 132 -6 0 -53 -38 -166
-135 -13 -11 -36 -40 -50 -65 -32 -54 -51 -75 -60 -65 -4 3 2 13 12 21 11 8
15 14 9 14 -17 0 -34 -26 -27 -44 3 -9 10 -13 15 -10 5 3 9 1 9 -5 0 -5 -4
-13 -10 -16 -5 -3 -10 -1 -10 5 0 6 -5 8 -12 4 -8 -5 -9 -2 -5 9 4 10 2 17 -4
17 -7 0 -5 10 5 24 9 14 13 32 10 41 -5 11 -2 14 12 9 18 -5 18 -5 1 6 -18 11
-18 12 0 32 18 21 18 21 -5 7 -12 -8 -20 -19 -18 -26 3 -7 1 -15 -4 -18 -18
-11 -10 44 8 55 16 11 16 11 0 6 -16 -5 -18 3 -14 89 2 52 0 95 -5 95 -8 0
-11 -9 -29 -87 -7 -29 -16 -50 -21 -47 -5 3 -8 57 -6 120 2 63 -1 114 -5 114
-15 0 -20 -27 -22 -135 -2 -87 -5 -109 -18 -116 -10 -6 -15 -19 -13 -37 2 -15
6 -56 10 -92 4 -36 9 -73 11 -82 3 -10 8 -30 10 -45 6 -29 59 -129 75 -138 5
-3 0 -16 -11 -27 -37 -40 -60 -122 -54 -185 4 -32 11 -66 16 -76 13 -26 2 -34
-19 -14 -20 18 -53 6 -53 -18 0 -17 -16 -20 -25 -5 -13 21 -75 -21 -75 -51 0
-13 -6 -18 -22 -16 -21 2 -23 -2 -24 -45 l-1 -48 639 0 638 0 0 175 0 175 -32
35 c-35 38 -55 42 -190 44 -45 1 -57 5 -61 19 -4 14 -5 14 -6 1 -1 -22 -71
-19 -84 3 -12 18 -2 52 13 43 6 -3 13 1 16 9 3 9 13 16 21 16 8 0 12 3 9 8 -2
4 2 15 9 25 11 16 13 16 19 2 4 -11 2 -14 -6 -9 -6 4 -8 3 -4 -4 3 -6 2 -13
-3 -17 -6 -3 -7 -13 -4 -23 6 -15 5 -15 -10 -3 -16 12 -22 8 -18 -12 1 -5 -3
-6 -9 -2 -6 4 -9 1 -8 -7 2 -7 -3 -12 -9 -10 -21 4 -15 -15 6 -21 13 -3 18 0
15 8 -3 6 2 18 11 25 18 15 20 0 3 -19 -11 -11 -9 -11 9 0 12 7 19 17 17 21
-3 4 0 8 5 8 6 0 11 -5 11 -12 0 -6 3 -9 6 -5 3 3 2 12 -2 19 -12 19 -13 37
-3 44 5 3 9 0 9 -6 0 -6 5 -8 11 -5 6 4 8 13 5 20 -3 8 3 19 11 27 15 11 16
11 10 -4 -3 -10 -2 -18 4 -18 6 0 9 8 7 18 -2 9 -10 16 -16 14 -7 -1 -12 6
-12 15 -1 16 -2 16 -10 2 -5 -9 -8 -26 -5 -38 2 -12 0 -19 -4 -16 -13 7 -20
45 -9 45 5 0 7 4 4 9 -3 5 1 12 9 15 10 4 14 14 11 31 -3 14 1 31 7 37 18 19
18 228 0 221 -7 -3 -13 -14 -13 -26 0 -11 -3 -17 -7 -13 -11 10 -13 77 -2 71
4 -3 11 -1 14 5 4 6 1 9 -6 8 -7 -2 -14 6 -16 17 -1 11 -4 34 -7 50 -3 17 -7
50 -10 74 -5 40 -24 80 -27 56z m-659 -385 c0 -5 -4 -10 -10 -10 -5 0 -10 5
-10 10 0 6 5 10 10 10 6 0 10 -4 10 -10z m18 -118 c2 -12 -1 -22 -7 -22 -6 0
-8 7 -5 15 4 8 1 15 -5 15 -6 0 -11 5 -11 11 0 20 25 3 28 -19z"/>
<path d="M1054 849 c-3 -6 -2 -15 3 -20 5 -5 9 -1 9 11 0 23 -2 24 -12 9z"/>
<path d="M1052 798 c3 -7 13 -13 24 -14 16 -1 16 0 1 3 -9 3 -15 9 -12 14 4 5
1 9 -5 9 -7 0 -10 -6 -8 -12z"/>
<path d="M1053 755 c0 -8 4 -15 9 -15 4 0 8 7 8 15 0 8 -4 15 -8 15 -5 0 -9
-7 -9 -15z"/>
<path d="M1087 753 c3 -7 6 -13 8 -13 2 0 5 6 8 13 3 8 -1 14 -8 14 -7 0 -11
-6 -8 -14z"/>
<path d="M1053 714 c0 -7 7 -10 16 -6 14 5 14 3 3 -11 -17 -20 -6 -43 12 -28
7 6 17 7 21 3 5 -4 5 -1 1 6 -6 10 -11 10 -22 1 -14 -11 -20 1 -7 15 14 14 10
35 -6 33 -10 0 -18 -6 -18 -13z"/>
<path d="M1039 661 c7 -5 9 -11 5 -13 -5 -3 -3 -3 4 -2 6 2 12 0 12 -4 0 -4
10 -13 23 -21 21 -14 21 -13 7 5 -20 25 -43 43 -55 44 -5 0 -4 -4 4 -9z"/>
<path d="M1035 620 c-8 -13 9 -20 24 -11 10 6 9 10 -3 14 -8 3 -18 2 -21 -3z"/>
<path d="M1030 511 c0 -7 -5 -9 -12 -5 -7 5 -8 3 -3 -5 5 -9 10 -10 18 -2 6 6
8 14 4 18 -4 3 -7 1 -7 -6z"/>
</g>
</svg>
